<?xml version="1.0" encoding="UTF-8"?>
<svg xmlns="http://www.w3.org/2000/svg" xmlns:xlink="http://www.w3.org/1999/xlink" viewBox="0 0 24 24" width="24px" height="24px">
<g id="surface15704225">
<path style=" stroke:none;fill-rule:nonzero;fill:rgb(15.686275%,71.764708%,41.960785%);fill-opacity:1;" d="M 9.601562 4.320312 L 9.601562 6.71875 L 4.800781 6.71875 L 4.800781 9.121094 L 2.398438 9.121094 L 2.398438 11.519531 L 0.539062 11.519531 C 0.308594 11.519531 0.117188 11.679688 0.0742188 11.910156 C 0.0703125 11.925781 0 12.328125 0 12.839844 C 0 13.175781 0.03125 13.542969 0.0898438 13.90625 C 0.640625 13.773438 1.644531 13.578125 1.46875 12.929688 C 2.417969 14.027344 4.6875 13.695312 5.265625 13.15625 C 5.90625 14.085938 9.65625 13.730469 9.914062 13.003906 C 10.722656 13.949219 13.21875 13.949219 14.023438 13.003906 C 14.285156 13.730469 18.015625 14.085938 18.660156 13.15625 C 18.863281 13.347656 19.289062 13.503906 19.785156 13.589844 C 19.953125 13.273438 20.105469 12.953125 20.25 12.613281 C 23.296875 12.578125 23.957031 10.386719 23.984375 10.289062 C 24.039062 10.105469 23.964844 9.917969 23.820312 9.796875 C 23.769531 9.75 22.644531 8.839844 20.820312 9.148438 C 20.308594 7.484375 18.988281 6.722656 18.929688 6.691406 C 18.757812 6.59375 18.542969 6.609375 18.390625 6.734375 C 18.339844 6.773438 17.207031 7.734375 17.386719 9.703125 C 17.429688 10.199219 17.558594 10.636719 17.761719 11.023438 C 17.367188 11.246094 16.6875 11.519531 15.601562 11.519531 L 15.359375 11.519531 L 15.359375 9.121094 L 12.960938 9.121094 L 12.960938 4.320312 Z M 19.785156 13.589844 C 19.726562 13.703125 19.652344 13.8125 19.589844 13.921875 L 23.925781 13.921875 C 23.402344 13.789062 22.285156 13.613281 22.46875 12.929688 C 21.855469 13.640625 20.691406 13.742188 19.785156 13.589844 Z M 19.589844 13.921875 L 0.0898438 13.921875 C 0.207031 14.625 0.445312 15.363281 0.808594 16.078125 C 3.417969 16.691406 6.152344 15.757812 6.179688 15.75 C 6.429688 15.660156 6.695312 15.800781 6.78125 16.050781 C 6.867188 16.300781 6.746094 16.578125 6.496094 16.664062 C 6.402344 16.695312 4.753906 17.25 2.730469 17.25 C 2.328125 17.25 1.90625 17.226562 1.484375 17.175781 C 2.746094 18.84375 4.878906 20.160156 8.160156 20.160156 C 13.347656 20.160156 17.335938 17.957031 19.589844 13.921875 Z M 0.0898438 13.921875 C 0.0898438 13.914062 0.09375 13.914062 0.0898438 13.90625 C 0.0585938 13.914062 0.0273438 13.914062 0 13.921875 Z M 10.558594 5.28125 L 12 5.28125 L 12 6.71875 L 10.558594 6.71875 Z M 5.761719 7.679688 L 7.199219 7.679688 L 7.199219 9.121094 L 5.761719 9.121094 Z M 8.160156 7.679688 L 9.601562 7.679688 L 9.601562 9.121094 L 8.160156 9.121094 Z M 10.558594 7.679688 L 12 7.679688 L 12 9.121094 L 10.558594 9.121094 Z M 3.359375 10.078125 L 4.800781 10.078125 L 4.800781 11.519531 L 3.359375 11.519531 Z M 5.761719 10.078125 L 7.199219 10.078125 L 7.199219 11.519531 L 5.761719 11.519531 Z M 8.160156 10.078125 L 9.601562 10.078125 L 9.601562 11.519531 L 8.160156 11.519531 Z M 10.558594 10.078125 L 12 10.078125 L 12 11.519531 L 10.558594 11.519531 Z M 12.960938 10.078125 L 14.398438 10.078125 L 14.398438 11.519531 L 12.960938 11.519531 Z M 7.679688 14.878906 C 7.742188 14.878906 7.804688 14.890625 7.859375 14.910156 C 7.800781 14.945312 7.753906 15 7.753906 15.074219 C 7.753906 15.183594 7.839844 15.285156 7.949219 15.285156 C 8.023438 15.285156 8.097656 15.238281 8.128906 15.179688 C 8.15625 15.234375 8.160156 15.292969 8.160156 15.359375 C 8.160156 15.625 7.945312 15.839844 7.679688 15.839844 C 7.414062 15.839844 7.199219 15.625 7.199219 15.359375 C 7.199219 15.09375 7.414062 14.878906 7.679688 14.878906 Z M 7.679688 14.878906 "/>
</g>
</svg>
